TITLE ""
FILE "1Q_t_1229-1238.mp3" MP3
  TRACK 01 AUDIO
    TITLE "1Q_t_1229-1238_01"
    INDEX 01 00:00:00
  TRACK 02 AUDIO
    TITLE "1Q_t_1229-1238_02"
    INDEX 01 00:00:08
  TRACK 03 AUDIO
    TITLE "1Q_t_1229-1238_03"
    INDEX 01 00:01:18
  TRACK 04 AUDIO
    TITLE "1Q_t_1229-1238_04"
    INDEX 01 00:01:25
  TRACK 05 AUDIO
    TITLE "1Q_t_1229-1238_05"
    INDEX 01 00:04:65
  TRACK 06 AUDIO
    TITLE "1Q_t_1229-1238_06"
    INDEX 01 00:04:71
  TRACK 07 AUDIO
    TITLE "1Q_t_1229-1238_07"
    INDEX 01 00:10:71
  TRACK 08 AUDIO
    TITLE "1Q_t_1229-1238_08"
    INDEX 01 00:11:41
  TRACK 09 AUDIO
    TITLE "1Q_t_1229-1238_09"
    INDEX 01 00:12:55
  TRACK 10 AUDIO
    TITLE "1Q_t_1229-1238_10"
    INDEX 01 00:12:62
  TRACK 11 AUDIO
    TITLE "1Q_t_1229-1238_11"
    INDEX 01 00:14:55
  TRACK 12 AUDIO
    TITLE "1Q_t_1229-1238_12"
    INDEX 01 00:14:61
  TRACK 13 AUDIO
    TITLE "1Q_t_1229-1238_13"
    INDEX 01 00:21:48
  TRACK 14 AUDIO
    TITLE "1Q_t_1229-1238_14"
    INDEX 01 00:22:20
  TRACK 15 AUDIO
    TITLE "1Q_t_1229-1238_15"
    INDEX 01 00:23:25
  TRACK 16 AUDIO
    TITLE "1Q_t_1229-1238_16"
    INDEX 01 00:23:35
  TRACK 17 AUDIO
    TITLE "1Q_t_1229-1238_17"
    INDEX 01 00:24:44
  TRACK 18 AUDIO
    TITLE "1Q_t_1229-1238_18"
    INDEX 01 00:24:52
  TRACK 19 AUDIO
    TITLE "1Q_t_1229-1238_19"
    INDEX 01 00:30:25
  TRACK 20 AUDIO
    TITLE "1Q_t_1229-1238_20"
    INDEX 01 00:30:70
  TRACK 21 AUDIO
    TITLE "1Q_t_1229-1238_21"
    INDEX 01 00:32:22
  TRACK 22 AUDIO
    TITLE "1Q_t_1229-1238_22"
    INDEX 01 00:32:28
  TRACK 23 AUDIO
    TITLE "1Q_t_1229-1238_23"
    INDEX 01 00:34:68
  TRACK 24 AUDIO
    TITLE "1Q_t_1229-1238_24"
    INDEX 01 00:35:01
  TRACK 25 AUDIO
    TITLE "1Q_t_1229-1238_25"
    INDEX 01 00:41:09
  TRACK 26 AUDIO
    TITLE "1Q_t_1229-1238_26"
    INDEX 01 00:41:54
  TRACK 27 AUDIO
    TITLE "1Q_t_1229-1238_27"
    INDEX 01 00:43:20
  TRACK 28 AUDIO
    TITLE "1Q_t_1229-1238_28"
    INDEX 01 00:43:28
  TRACK 29 AUDIO
    TITLE "1Q_t_1229-1238_29"
    INDEX 01 00:45:48
  TRACK 30 AUDIO
    TITLE "1Q_t_1229-1238_30"
    INDEX 01 00:45:56
  TRACK 31 AUDIO
    TITLE "1Q_t_1229-1238_31"
    INDEX 01 00:50:49
  TRACK 32 AUDIO
    TITLE "1Q_t_1229-1238_32"
    INDEX 01 00:51:21
  TRACK 33 AUDIO
    TITLE "1Q_t_1229-1238_33"
    INDEX 01 00:52:38
  TRACK 34 AUDIO
    TITLE "1Q_t_1229-1238_34"
    INDEX 01 00:52:48
  TRACK 35 AUDIO
    TITLE "1Q_t_1229-1238_35"
    INDEX 01 00:53:42
  TRACK 36 AUDIO
    TITLE "1Q_t_1229-1238_36"
    INDEX 01 00:53:48
  TRACK 37 AUDIO
    TITLE "1Q_t_1229-1238_37"
    INDEX 01 00:58:33
  TRACK 38 AUDIO
    TITLE "1Q_t_1229-1238_38"
    INDEX 01 00:59:09
  TRACK 39 AUDIO
    TITLE "1Q_t_1229-1238_39"
    INDEX 01 01:00:34
  TRACK 40 AUDIO
    TITLE "1Q_t_1229-1238_40"
    INDEX 01 01:00:42
  TRACK 41 AUDIO
    TITLE "1Q_t_1229-1238_41"
    INDEX 01 01:02:47
  TRACK 42 AUDIO
    TITLE "1Q_t_1229-1238_42"
    INDEX 01 01:02:54
  TRACK 43 AUDIO
    TITLE "1Q_t_1229-1238_43"
    INDEX 01 01:07:38
  TRACK 44 AUDIO
    TITLE "1Q_t_1229-1238_44"
    INDEX 01 01:08:06
  TRACK 45 AUDIO
    TITLE "1Q_t_1229-1238_45"
    INDEX 01 01:09:21
  TRACK 46 AUDIO
    TITLE "1Q_t_1229-1238_46"
    INDEX 01 01:09:29
  TRACK 47 AUDIO
    TITLE "1Q_t_1229-1238_47"
    INDEX 01 01:11:32
  TRACK 48 AUDIO
    TITLE "1Q_t_1229-1238_48"
    INDEX 01 01:11:38
  TRACK 49 AUDIO
    TITLE "1Q_t_1229-1238_49"
    INDEX 01 01:19:57
  TRACK 50 AUDIO
    TITLE "1Q_t_1229-1238_50"
    INDEX 01 01:20:25
  TRACK 51 AUDIO
    TITLE "1Q_t_1229-1238_51"
    INDEX 01 01:21:22
  TRACK 52 AUDIO
    TITLE "1Q_t_1229-1238_52"
    INDEX 01 01:21:30
  TRACK 53 AUDIO
    TITLE "1Q_t_1229-1238_53"
    INDEX 01 01:25:03
  TRACK 54 AUDIO
    TITLE "1Q_t_1229-1238_54"
    INDEX 01 01:25:09
  TRACK 55 AUDIO
    TITLE "1Q_t_1229-1238_55"
    INDEX 01 01:31:39
  TRACK 56 AUDIO
    TITLE "1Q_t_1229-1238_56"
    INDEX 01 01:32:09
  TRACK 57 AUDIO
    TITLE "1Q_t_1229-1238_57"
    INDEX 01 01:33:20
  TRACK 58 AUDIO
    TITLE "1Q_t_1229-1238_58"
    INDEX 01 01:33:28
  TRACK 59 AUDIO
    TITLE "1Q_t_1229-1238_59"
    INDEX 01 01:35:15
  TRACK 60 AUDIO
    TITLE "1Q_t_1229-1238_60"
    INDEX 01 01:35:21
  TRACK 61 AUDIO
    TITLE "1Q_t_1229-1238_61"
    INDEX 01 01:41:51
